<svg width="80" height="80" viewBox="0 0 80 80" fill="none" xmlns="http://www.w3.org/2000/svg">
<g filter="url(#filter0_d)">
<rect x="60.0176" y="47.9915" width="41.0172" height="41.0172" rx="20.5086" transform="rotate(180 60.0176 47.9915)" fill="#DEDEDE" fill-opacity="0.2"/>
<g clip-path="url(#clip0)">
<path d="M42.2585 33.9192C42.3713 33.8067 42.4607 33.673 42.5218 33.5258C42.5828 33.3786 42.6143 33.2208 42.6143 33.0615C42.6143 32.9022 42.5828 32.7444 42.5218 32.5972C42.4607 32.45 42.3713 32.3163 42.2585 32.2038L37.538 27.4833L42.2585 22.7629C42.4859 22.5354 42.6137 22.2269 42.6137 21.9052C42.6137 21.5835 42.4859 21.2749 42.2585 21.0475C42.031 20.82 41.7225 20.6922 41.4008 20.6922C41.0791 20.6922 40.7705 20.82 40.543 21.0475L34.9588 26.6317C34.846 26.7443 34.7565 26.878 34.6955 27.0251C34.6344 27.1723 34.603 27.3301 34.603 27.4894C34.603 27.6488 34.6344 27.8065 34.6955 27.9537C34.7565 28.1009 34.846 28.2346 34.9588 28.3471L40.543 33.9314C41.0054 34.3937 41.784 34.3937 42.2585 33.9192Z" fill="white"/>
</g>
<rect x="59.67" y="47.6439" width="40.322" height="40.322" rx="20.161" transform="rotate(180 59.67 47.6439)" stroke="white" stroke-opacity="0.4" stroke-width="0.695207"/>
</g>
<defs>
<filter id="filter0_d" x="0" y="0.974121" width="79.0176" height="79.0173" filterUnits="userSpaceOnUse" color-interpolation-filters="sRGB">
<feFlood flood-opacity="0" result="BackgroundImageFix"/>
<feColorMatrix in="SourceAlpha" type="matrix" values="0 0 0 0 0 0 0 0 0 0 0 0 0 0 0 0 0 0 127 0"/>
<feOffset dy="13"/>
<feGaussianBlur stdDeviation="9.5"/>
<feColorMatrix type="matrix" values="0 0 0 0 0 0 0 0 0 0 0 0 0 0 0 0 0 0 0.07 0"/>
<feBlend mode="normal" in2="BackgroundImageFix" result="effect1_dropShadow"/>
<feBlend mode="normal" in="SourceGraphic" in2="effect1_dropShadow" result="shape"/>
</filter>
<clipPath id="clip0">
<rect width="8.51629" height="14.5994" fill="white" transform="translate(42.6338 34.7825) rotate(180)"/>
</clipPath>
</defs>
</svg>
